<?xml version="1.0" encoding="utf-8"?>
<!-- Generator: Adobe Illustrator 21.0.0, SVG Export Plug-In . SVG Version: 6.00 Build 0)  -->
<svg version="1.1" id="Layer_1" xmlns="http://www.w3.org/2000/svg" xmlns:xlink="http://www.w3.org/1999/xlink" x="0px" y="0px"
	 viewBox="0 0 2272 1872" style="enable-background:new 0 0 2272 1872;" xml:space="preserve">
<style type="text/css">
	.st0{fill:#F7A097;}
	.st1{fill:#F16575;}
	.st2{fill:#A8444B;}
	.st3{fill:#7C3C43;}
	.st4{fill:#A9A8A9;}
	.st5{fill:#D3D3D3;}
	.st6{fill:#90D4F3;}
	.st7{fill:#7AB7CC;}
	.st8{fill:#898989;}
	.st9{fill:#22353A;}
	.st10{fill:#6895A4;}
	.st11{fill:#83363E;}
	.st12{fill:#344F56;}
	.st13{fill:#C13E44;}
	.st14{fill:#D5EFFA;}
	.st15{fill:#62A4BB;}
	.st16{fill:#FFFFFF;}
	.st17{fill:#FDF495;}
	.st18{fill:#CCC171;}
	.st19{fill:#498BA3;}
	.st20{fill:#942B33;}
	.st21{fill:#EAF7FE;}
	.st22{fill:#F26B77;}
	.st23{fill:#A2D7F5;}
	.st24{fill:#559CD0;}
	.st25{fill:#E1C3C8;}
	.st26{fill:#C1A8AD;}
	.st27{fill:#FEEEF0;}
	.st28{fill:#41789B;}
	.st29{fill:#94323B;}
	.st30{fill:#FCD198;}
	.st31{fill:#4387B2;}
</style>
<rect class="st0" width="2272" height="1872"/>
<g>
	<g>
		<g>
			<path class="st1" d="M464.3,540.3c11,0,20-9,20-20c0-0.8,0.1-1.5,0.2-2.2h-40.5c0.1,0.7,0.2,1.4,0.2,2.2
				C444.3,531.3,453.3,540.3,464.3,540.3z"/>
			<rect x="371.5" y="486.2" class="st2" width="51.1" height="14.6"/>
			<rect x="439.8" y="486.2" class="st2" width="48.7" height="14.6"/>
			<path class="st1" d="M530.8,540.3c11,0,20-9,20-20c0-0.8,0.1-1.5,0.2-2.2h-40.5c0.1,0.7,0.2,1.4,0.2,2.2
				C510.7,531.3,519.7,540.3,530.8,540.3z"/>
			<path class="st1" d="M397.8,540.3c11,0,20-9,20-20c0-0.8,0.1-1.5,0.2-2.2h-40.5c0.1,0.7,0.2,1.4,0.2,2.2
				C377.8,531.3,386.8,540.3,397.8,540.3z"/>
			<path class="st2" d="M354.4,486.2h-42.3c-0.1,4.6-0.2,9.8-0.3,14.6h42.6V486.2z"/>
			<polygon class="st2" points="202.5,620.5 222.6,620.5 319.9,620.5 319.9,606 202.5,606 			"/>
			<polygon class="st1" points="202.5,620.5 205.7,620.5 220.8,620.5 220.8,606 202.5,606 			"/>
			<polygon class="st3" points="301.5,620.5 304.7,620.5 319.8,620.5 319.8,606 301.5,606 			"/>
			<path class="st1" d="M351.4,520.3c0-0.8,0.1-1.5,0.2-2.2h-40.2c0,1,0,1.8,0,2.2c0,11,9,20,20,20S351.4,531.3,351.4,520.3z"/>
			<rect x="505.7" y="486.2" class="st2" width="49.5" height="14.6"/>
			<rect x="231.2" y="686.1" class="st4" width="88.6" height="36.4"/>
			<rect x="231.2" y="686.1" class="st5" width="18.5" height="36.4"/>
			<rect x="231.2" y="637.7" class="st6" width="88.6" height="31.2"/>
			<rect x="231.2" y="637.7" class="st7" width="88.6" height="15.6"/>
			<path class="st2" d="M549.9,445.9H381c-14.6,0-26.9,9.8-30.6,23.2h230.1C576.7,455.7,564.4,445.9,549.9,445.9z"/>
			<rect x="572.3" y="486.2" class="st2" width="44.9" height="14.6"/>
			<rect x="420" y="667.3" class="st6" width="35.1" height="55.2"/>
			<rect x="608.7" y="686.1" class="st4" width="88.6" height="36.4"/>
			<rect x="608.7" y="637.7" class="st6" width="88.6" height="31.2"/>
			<polygon class="st2" points="726,606 608.7,606 608.7,620.5 705.9,620.5 726,620.5 			"/>
			<polygon class="st1" points="726,606 705.9,606 705.9,620.5 722.5,620.5 726,620.5 			"/>
			<polygon class="st3" points="628.8,606 608.7,606 608.7,620.5 625.3,620.5 628.8,620.5 			"/>
			<rect x="337.1" y="658.1" class="st6" width="43.4" height="28.1"/>
			<rect x="337.1" y="658.1" class="st7" width="43.4" height="13.6"/>
			<path class="st1" d="M617.3,519.7v-1.6H577c0.1,0.7,0.2,1.4,0.2,2.2c0,10.9,8.8,19.8,19.6,20c5.3,0.1,10.3-1.9,14.1-5.7
				C615,530.6,617.3,525.2,617.3,519.7z"/>
			<rect x="472.3" y="667.3" class="st6" width="35.1" height="55.2"/>
			<rect x="420" y="667.3" class="st7" width="35.1" height="25.7"/>
			<rect x="472.3" y="667.3" class="st7" width="35.1" height="25.7"/>
			<path class="st8" d="M564,536.9c-6.1,12.2-18.7,20.5-33.2,20.5c-14.5,0-27.1-8.3-33.2-20.5c-6.1,12.2-18.7,20.5-33.2,20.5
				c-14.5,0-27.1-8.3-33.2-20.5c-6.1,12.2-18.7,20.5-33.2,20.5c-14.5,0-27.1-8.3-33.2-20.5c-5.3,10.5-15.5,18.2-27.5,20v47.7h254.5
				V557C579.5,555.1,569.3,547.4,564,536.9z"/>
			<path class="st4" d="M337.1,641h52c4.7,0,8.6,3.8,8.6,8.6v45.3c0,4.7-3.8,8.6-8.6,8.6h-52v19h65.7v-63.8c0-4.7,3.8-8.6,8.6-8.6
				H516c4.7,0,8.6,3.8,8.6,8.6v63.8h66.9v-19h-53c-4.7,0-8.6-3.8-8.6-8.6v-45.3c0-4.7,3.8-8.6,8.6-8.6h53v-11.9v-7.3H337.1V641z"/>
			<rect x="546.6" y="657.6" class="st6" width="44.4" height="28.1"/>
			<path d="M763.5,722.5h-49v-84.8h20c4.7,0,8.6-3.8,8.6-8.6v-31.7c0-4.7-3.8-8.6-8.6-8.6H608.7v-33.2c5.3-1.8,10.2-4.7,14.3-8.8
				c7.3-7.1,11.4-17,11.4-27.1v-42c0-4.7-3.8-8.6-8.6-8.6h-27.8c-4.1-22.9-24.1-40.4-48.2-40.4H381c-24.1,0-44.1,17.5-48.2,40.4
				h-29.1c-4.7,0-8.5,3.7-8.6,8.4c0,1.5-0.9,38-0.9,42.8c0,16.5,10.8,30.5,25.7,35.4v33.2H194c-4.7,0-8.6,3.8-8.6,8.6v31.7
				c0,4.7,3.8,8.6,8.6,8.6h20v84.8h-42.7c-4.7,0-8.6,3.8-8.6,8.6s3.8,8.6,8.6,8.6h51.3h105.8h0.1h82.9H516h84.1h105.8h57.6
				c4.7,0,8.6-3.8,8.6-8.6S768.2,722.5,763.5,722.5z M319.8,722.5h-88.6v-36.4h88.6V722.5z M319.8,669h-88.6v-31.2h88.6V669z
				 M319.9,620.5h-97.3h-20V606h117.4V620.5z M617.3,486.2v14.6h-44.9v-14.6H617.3z M381,445.9h168.8c14.6,0,26.9,9.8,30.6,23.2
				H350.4C354.2,455.7,366.5,445.9,381,445.9z M505.7,500.9v-14.6h49.5v14.6H505.7z M551,518.1c-0.1,0.7-0.2,1.5-0.2,2.2
				c0,11-9,20-20,20c-11,0-20-9-20-20.1c0-0.7-0.1-1.5-0.2-2.2H551z M439.8,500.9v-14.6h48.7v14.6H439.8z M484.5,518.1
				c-0.1,0.7-0.2,1.5-0.2,2.2c0,11-9,20-20,20s-20-9-20-20c0-0.7-0.1-1.5-0.2-2.2H484.5z M371.5,500.9v-14.6h51.1v14.6H371.5z
				 M418.1,518.1c-0.1,0.7-0.2,1.5-0.2,2.2c0,11-9,20-20,20s-20-9-20-20c0-0.7-0.1-1.5-0.2-2.2H418.1z M312.1,486.2h42.3v14.6h-42.6
				C311.9,496,312,490.9,312.1,486.2z M311.4,520.3c0-0.4,0-1.2,0-2.2h40.2c-0.1,0.7-0.2,1.5-0.2,2.2c0,11-9,20-20,20
				S311.4,531.3,311.4,520.3z M337.1,658.2h43.4v28.1h-43.4V658.2z M455.1,722.5H420v-55.2h35.1V722.5z M507.4,722.5h-35.1v-55.2
				h35.1V722.5z M591.5,686.3h-44.4v-28.1h44.4V686.3z M591.5,629.1V641h-53c-4.7,0-8.6,3.8-8.6,8.6v45.3c0,4.7,3.8,8.6,8.6,8.6h53
				v19h-66.9v-63.8c0-4.7-3.8-8.6-8.6-8.6H411.4c-4.7,0-8.6,3.8-8.6,8.6v63.8h-65.7v-19h52c4.7,0,8.6-3.8,8.6-8.6v-45.3
				c0-4.7-3.8-8.6-8.6-8.6h-52v-19.1h254.5V629.1z M591.5,604.7H337.1V557c12.1-1.9,22.2-9.5,27.5-20c6.1,12.1,18.7,20.5,33.2,20.5
				c14.5,0,27.1-8.3,33.2-20.5c6.1,12.1,18.7,20.5,33.2,20.5c14.5,0,27.1-8.3,33.2-20.5c6.1,12.1,18.7,20.5,33.2,20.5
				c14.5,0,27.1-8.4,33.2-20.5c5.3,10.5,15.5,18.2,27.5,20.1V604.7z M596.8,540.3c-10.8-0.2-19.6-9.2-19.6-20c0-0.7-0.1-1.5-0.2-2.2
				h40.3v1.6c0,5.5-2.3,11-6.3,14.9C607.1,538.4,602.1,540.4,596.8,540.3z M697.3,722.5h-88.6v-36.4h88.6V722.5z M697.3,669h-88.6
				v-31.2h88.6V669z M608.7,620.5V606H726v14.5h-20H608.7z"/>
			<path d="M227.3,763.4h473.2c4.7,0,8.6-3.8,8.6-8.6s-3.8-8.6-8.6-8.6H227.3c-4.7,0-8.6,3.8-8.6,8.6S222.6,763.4,227.3,763.4z"/>
			<path d="M463.5,776.1H255c-4.7,0-8.6,3.8-8.6,8.6c0,4.7,3.8,8.6,8.6,8.6h208.4c4.7,0,8.6-3.8,8.6-8.6
				C472.1,779.9,468.2,776.1,463.5,776.1z"/>
			<path d="M609.2,776.1H500.9c-4.7,0-8.6,3.8-8.6,8.6c0,4.7,3.8,8.6,8.6,8.6h108.4c4.7,0,8.6-3.8,8.6-8.6
				C617.8,779.9,614,776.1,609.2,776.1z"/>
		</g>
		<g>
			<rect x="608.7" y="637.7" class="st7" width="88.6" height="14.5"/>
			<rect x="546.6" y="657.6" class="st7" width="44.4" height="11.3"/>
		</g>
	</g>
	<g>
		<g>
			<path class="st2" d="M1154.5,562c15.1-5.4,31.6-5.2,46.6,0.5l192.6,73c1.2,0,2.4,0.1,3.5,0.6l57.7,23.1v-21L1212,544.1
				c-10.1-3.9-20.8-6-31.7-6.3l-4.9-0.1c-11.9-0.3-23.6,1.7-34.7,5.9l-249.2,93.7v17.2l58.1-19.6L1154.5,562z"/>
			<polygon class="st1" points="891.6,637.4 891.6,654.6 928.5,642.2 928.5,623.5 			"/>
			<rect x="1058.6" y="675.4" class="st9" width="106.1" height="47.1"/>
			<rect x="943.1" y="675.4" class="st9" width="98.4" height="47.1"/>
			<path class="st6" d="M1160.2,578.2l-217.1,77.4v2.6h455v-2.8L1195,578.6C1183.8,574.3,1171.5,574.2,1160.2,578.2z"/>
			<path class="st10" d="M1175.9,575.3c0.8,0,1.6,0,2.3,0c-6.1-0.1-12.2,0.8-18,2.9l-217.1,77.4v2.6h22l210.8-69.9V575.3z"/>
			<rect x="1181.9" y="675.4" class="st9" width="97" height="47.1"/>
			<rect x="1296" y="675.4" class="st9" width="102.1" height="47.1"/>
			<path d="M1469.8,722.5h-54.5v-54.2c0.1-0.5,0.1-1,0.1-1.5s-0.1-1-0.1-1.5v-3.5l45,18c1,0.4,2.1,0.6,3.2,0.6
				c1.7,0,3.4-0.5,4.8-1.5c2.4-1.6,3.8-4.3,3.8-7.1v-39.5c0-3.5-2.2-6.7-5.5-8l-248.4-96.3c-12-4.7-24.6-7.2-37.5-7.4l-4.9-0.1
				c-14.1-0.3-27.9,2.1-41.1,7L880,623.4c-3.3,1.3-5.6,4.5-5.6,8v35.1c0,2.8,1.3,5.4,3.6,7c2.2,1.6,5.1,2,7.7,1.2l40.2-13.5v61.3
				h-48.4c-4.7,0-8.6,3.8-8.6,8.6s3.8,8.6,8.6,8.6h592.2c4.7,0,8.6-3.8,8.6-8.6S1474.5,722.5,1469.8,722.5z M891.6,654.6v-17.2
				l249.2-93.7c11.1-4.2,22.8-6.2,34.7-5.9l4.9,0.1c10.9,0.2,21.5,2.3,31.7,6.3l242.9,94.1v21l-57.7-23.1
				c-1.2-0.5-196.1-73.6-196.1-73.6c-15-5.7-31.5-5.8-46.6-0.5l-204.8,73L891.6,654.6z M1041.4,722.5h-98.4v-47.1h98.4V722.5z
				 M1164.7,722.5h-106.1v-47.1h106.1V722.5z M1278.9,722.5h-97v-47.1h97V722.5z M1398.1,722.5H1296v-47.1h102.1V722.5z
				 M1398.1,658.3h-455v-2.6l217.1-77.4c11.2-4,23.6-3.9,34.7,0.3l203.1,76.9V658.3z"/>
			<path d="M1406.8,746.2H933.6c-4.7,0-8.6,3.8-8.6,8.6s3.8,8.6,8.6,8.6h473.2c4.7,0,8.6-3.8,8.6-8.6S1411.6,746.2,1406.8,746.2z"/>
			<path d="M1169.8,776.1H961.3c-4.7,0-8.6,3.8-8.6,8.6c0,4.7,3.8,8.6,8.6,8.6h208.4c4.7,0,8.6-3.8,8.6-8.6
				C1178.3,779.9,1174.5,776.1,1169.8,776.1z"/>
			<path d="M1315.5,776.1h-108.4c-4.7,0-8.6,3.8-8.6,8.6c0,4.7,3.8,8.6,8.6,8.6h108.4c4.7,0,8.6-3.8,8.6-8.6
				C1324.1,779.9,1320.3,776.1,1315.5,776.1z"/>
		</g>
		<g>
			<path class="st11" d="M1201.1,562.5c0,0,195,73.1,196.1,73.6l57.7,23.1v-21L1212,544.1c-10.1-3.9-20.8-6-31.7-6.3l-4.5-0.1v20.4
				C1184.4,558,1193,559.4,1201.1,562.5z"/>
			<path class="st10" d="M1398.1,658.3v-2.8L1195,578.6c-6.1-2.3-12.6-3.4-19.1-3.2v82.9H1398.1z"/>
		</g>
		<g>
			<path class="st12" d="M1008.2,703.2l22.3-27.8h-14.3l-15.8,21.8c-2.4,3.3,0,7.8,4,7.8l0,0
				C1005.9,705.1,1007.3,704.4,1008.2,703.2z"/>
			<path class="st12" d="M979.6,703.2l22.3-27.8h-14.3l-15.8,21.8c-2.4,3.3,0,7.8,4,7.8h0C977.2,705.1,978.6,704.4,979.6,703.2z"/>
		</g>
		<g>
			<path class="st12" d="M1120.2,703.2l22.3-27.8h-14.3l-15.8,21.8c-2.4,3.3,0,7.8,4,7.8l0,0
				C1117.9,705.1,1119.3,704.4,1120.2,703.2z"/>
			<path class="st12" d="M1091.6,703.2l22.3-27.8h-14.3l-15.8,21.8c-2.4,3.3,0,7.8,4,7.8l0,0
				C1089.2,705.1,1090.6,704.4,1091.6,703.2z"/>
		</g>
		<g>
			<path class="st12" d="M1237.9,703.2l22.3-27.8H1246l-15.8,21.8c-2.4,3.3,0,7.8,4,7.8l0,0C1235.6,705.1,1237,704.4,1237.9,703.2z"
				/>
			<path class="st12" d="M1209.3,703.2l22.3-27.8h-14.3l-15.8,21.8c-2.4,3.3,0,7.8,4,7.8l0,0
				C1206.9,705.1,1208.3,704.4,1209.3,703.2z"/>
		</g>
		<g>
			<path class="st12" d="M1353.7,703.2l22.3-27.8h-14.3l-15.8,21.8c-2.4,3.3,0,7.8,4,7.8h0C1351.4,705.1,1352.8,704.4,1353.7,703.2z
				"/>
			<path class="st12" d="M1325.1,703.2l22.3-27.8h-14.3l-15.8,21.8c-2.4,3.3,0,7.8,4,7.8h0C1322.7,705.1,1324.1,704.4,1325.1,703.2z
				"/>
		</g>
	</g>
	<g>
		<g>
			<rect x="1834.9" y="646.6" class="st6" width="28" height="33.9"/>
			<path class="st13" d="M1603.7,624.4h21.8c4.7,0,8.6,3.8,8.6,8.6v56.1c0,4.7-3.8,8.6-8.6,8.6h-21.8v33.9h44.7c0-0.1,0-0.3,0-0.4
				V638c0-4.7,3.8-8.6,8.6-8.6h138.1c4.7,0,8.6,3.8,8.6,8.6v93.5h59.4v-33.9h-36.6c-4.7,0-8.6-3.8-8.6-8.6v-51
				c0-4.7,3.8-8.6,8.6-8.6h36.6v-60.6h-259.3V624.4z"/>
			<rect x="1603.7" y="568.8" class="st11" width="259.3" height="26"/>
			<path class="st11" d="M1734.5,731.1c0,0.1,0,0.3,0,0.4h51.9v-84.9h-51.9V731.1z"/>
			<rect x="1645" y="412.1" class="st13" width="164.4" height="48.2"/>
			<path class="st11" d="M1809.4,412.1h-82.3c0,12.6,0,33.1,0,48.2h82.2V412.1z"/>
			<path class="st11" d="M1717.3,646.6h-51.9v84.5c0,0.1,0,0.3,0,0.4h51.9c0-0.1,0-0.3,0-0.4V646.6z"/>
			<rect x="1603.7" y="641.6" class="st6" width="13.3" height="38.9"/>
			<polygon class="st6" points="1880.1,568.8 1880.1,598.1 2034.7,598.1 2065.3,598.1 2065.3,568.8 1905.4,568.8 			"/>
			<polygon class="st14" points="1880.1,568.8 1880.1,598.1 1899.9,598.1 1903.8,598.1 1903.8,568.8 1883.3,568.8 			"/>
			<polygon class="st15" points="2042.2,568.8 2042.2,598.1 2062,598.1 2065.9,598.1 2065.9,568.8 2045.4,568.8 			"/>
			<rect x="2043.3" y="682" class="st11" width="11.8" height="49.6"/>
			<rect x="1880.1" y="615.3" class="st11" width="146" height="25.1"/>
			<polygon class="st6" points="1896.8,509.8 1553.6,509.8 1553.6,551.6 1595.1,551.6 1871.5,551.6 1896.8,551.6 			"/>
			<polygon class="st14" points="1595.9,509.8 1553.6,509.8 1553.6,551.6 1558.7,551.6 1592.8,551.6 1595.9,551.6 			"/>
			<polygon class="st15" points="1896.8,509.8 1854.5,509.8 1854.5,551.6 1859.6,551.6 1893.7,551.6 1896.8,551.6 			"/>
			<rect x="1944.7" y="657.5" class="st6" width="81.4" height="32.9"/>
			<rect x="1880.1" y="657.5" class="st6" width="47.5" height="32.9"/>
			<rect x="1880.1" y="707.6" class="st13" width="146" height="24"/>
			<path d="M2017.7,757h-422.6c-4.7,0-8.6,3.8-8.6,8.6c0,4.7,3.8,8.6,8.6,8.6h422.6c4.7,0,8.6-3.8,8.6-8.6
				C2026.3,760.8,2022.4,757,2017.7,757z"/>
			<path d="M1806,788.9h-186.1c-4.7,0-8.6,3.8-8.6,8.6s3.8,8.6,8.6,8.6H1806c4.7,0,8.6-3.8,8.6-8.6S1810.7,788.9,1806,788.9z"/>
			<path d="M1936.1,788.9h-96.8c-4.7,0-8.6,3.8-8.6,8.6s3.8,8.6,8.6,8.6h96.8c4.7,0,8.6-3.8,8.6-8.6S1940.9,788.9,1936.1,788.9z"/>
			<path d="M2073.9,551.6H1914v-50.4c0-4.7-3.8-8.6-8.6-8.6h-111.2v-15.3h23.8c4.7,0,8.6-3.8,8.6-8.6v-65.3c0-4.7-3.8-8.6-8.6-8.6
				h-181.6c-4.7,0-8.6,3.8-8.6,8.6v65.3c0,4.7,3.8,8.6,8.6,8.6h20.2v15.3H1545c-4.7,0-8.6,3.8-8.6,8.6v59c0,4.7,3.8,8.6,8.6,8.6
				h41.5v162.7H1545c-4.7,0-8.6,3.8-8.6,8.6c0,4.7,3.8,8.6,8.6,8.6h528.8c4.7,0,8.6-3.8,8.6-8.6c0-4.7-3.8-8.6-8.6-8.6h-1.7v-58.1
				c0-4.7-3.8-8.6-8.6-8.6h-20.4v-49.6h30.6c4.7,0,8.6-3.8,8.6-8.6v-46.4C2082.5,555.5,2078.6,551.6,2073.9,551.6z M1645,460.2
				v-48.2h164.4v48.2H1645z M1777.1,477.4v15.3h-103.2v-15.3H1777.1z M1665.4,731.5c0-0.1,0-0.3,0-0.4v-84.5h51.9v84.5
				c0,0.1,0,0.3,0,0.4H1665.4z M1786.4,731.5h-51.9c0-0.1,0-0.3,0-0.4v-84.5h51.9V731.5z M1862.9,680.5h-28v-33.9h28V680.5z
				 M1862.9,629.5h-36.6c-4.7,0-8.6,3.8-8.6,8.6v51c0,4.7,3.8,8.6,8.6,8.6h36.6v33.9h-59.4V638c0-4.7-3.8-8.6-8.6-8.6h-138.1
				c-4.7,0-8.6,3.8-8.6,8.6v93.1c0,0.1,0,0.3,0,0.4h-44.7v-33.9h21.8c4.7,0,8.6-3.8,8.6-8.6V633c0-4.7-3.8-8.6-8.6-8.6h-21.8v-55.6
				h259.3V629.5z M1603.7,680.5v-38.9h13.3v38.9H1603.7z M1595.1,551.6h-41.5v-41.8h343.2v41.8h-25.3H1595.1z M1880.1,657.5h47.5
				v32.9h-47.5V657.5z M2026.1,731.5h-146v-24h146V731.5z M2026.1,690.4h-81.4v-32.9h81.4V690.4z M2026.1,640.3h-146v-25.1h146
				V640.3z M2055,682v49.6h-11.8V682H2055z M2065.3,598.1h-30.6h-154.6v-29.3h25.3h159.9V598.1z"/>
		</g>
		<g>
			<path class="st16" d="M1689.2,427.2c-1.2-1.9-4.4-3.8-8.1-3.8c-4.8,0-7.1,2-7.1,4.5c0,3,3.5,3.8,7.6,4.3
				c7.1,0.9,13.7,2.7,13.7,10.9c0,7.6-6.7,10.9-14.3,10.9c-7,0-12.3-2.1-14.9-8.4l5.4-2.8c1.5,3.8,5.5,5.4,9.6,5.4
				c4,0,7.8-1.4,7.8-5.1c0-3.2-3.4-4.5-7.9-5c-7-0.8-13.4-2.7-13.4-10.3c0-7,6.9-9.9,13.2-9.9c5.3,0,10.8,1.5,13.4,6.8L1689.2,427.2
				z"/>
			<path class="st16" d="M1724.6,446.6h-17.8l-2.9,6.4h-7l15.3-34.1h7l15.3,34.1h-7L1724.6,446.6z M1715.7,426.1l-6.3,14.5h12.7
				L1715.7,426.1z"/>
			<path class="st16" d="M1744.3,419v28.2h17.5v5.9h-24V419H1744.3z"/>
			<path class="st16" d="M1791.8,453.1h-25.5c0-11.4,0-22.8,0-34.1h25.5v6.2h-19.2v7.8h18.5v6h-18.5v7.7h19.2V453.1z"/>
		</g>
		<g>
			<rect x="1834.9" y="646.6" class="st15" width="28" height="14.4"/>
			<rect x="1603.7" y="641.6" class="st15" width="13.3" height="19.4"/>
		</g>
		<g>
			<rect x="1944.7" y="657.5" class="st15" width="81.4" height="16.4"/>
			<rect x="1880.1" y="657.5" class="st15" width="47.5" height="16.4"/>
		</g>
	</g>
	<g>
		<g>
			<rect x="306.7" y="1303.1" class="st17" width="12.9" height="50.6"/>
			<polygon class="st13" points="593.6,1235 593.6,1197 570.9,1197 			"/>
			<path class="st17" d="M423.8,1399.1c0,1.2-0.3,2.4-0.7,3.5h30.2v-93.6h-29.4V1399.1z"/>
			<rect x="610.7" y="1303.1" class="st17" width="11.3" height="50.6"/>
			<path class="st6" d="M648.2,1057.9h-39.1v10.1c0,4.7-3.8,8.6-8.6,8.6H328.3c-4.7,0-8.6-3.8-8.6-8.6v-10.1h-38.8v341.8
				c0,1-0.2,2-0.5,2.9h39.3V1371h-21.5c-4.7,0-8.6-3.8-8.6-8.6v-67.8c0-4.7,3.8-8.6,8.6-8.6h21.5v-31.2h-21.5
				c-4.7,0-8.6-3.8-8.6-8.6c0-4.7,3.8-8.6,8.6-8.6h21.5v-49.2c0-4.7,3.8-8.6,8.6-8.6h74.6c0,0,0.1,0,0.1,0h121.7c0,0,0,0,0.1,0h77.4
				c4.7,0,8.6,3.8,8.6,8.6v49.2h24.4c4.7,0,8.6,3.8,8.6,8.6c0,4.7-3.8,8.6-8.6,8.6h-24.4v31.2h19.9c4.7,0,8.6,3.8,8.6,8.6v67.8
				c0,4.7-3.8,8.6-8.6,8.6h-19.9v31.6h38c-0.3-0.9-0.5-1.9-0.5-2.9V1057.9z M611.3,1160.9c0,4.7-3.8,8.6-8.6,8.6H323
				c-4.7,0-8.6-3.8-8.6-8.6v-66.1c0-4.7,3.8-8.6,8.6-8.6h279.7c4.7,0,8.6,3.8,8.6,8.6V1160.9z"/>
			<rect x="579" y="1303.1" class="st17" width="14.6" height="50.6"/>
			<rect x="331.6" y="1103.3" class="st13" width="262.5" height="48.9"/>
			<rect x="470.4" y="1308.9" class="st18" width="34.9" height="93.6"/>
			<polygon class="st16" points="575.1,1237.6 550.9,1197 536.1,1197 548.2,1237.6 			"/>
			<polygon class="st16" points="486.8,1197 473.4,1197 474,1237.6 489,1237.6 			"/>
			<path class="st6" d="M590.2,1254.7C590.2,1254.7,590.2,1254.7,590.2,1254.7l-48.4,0c0,0,0,0,0,0c0,0,0,0,0,0H385.8c0,0,0,0,0,0
				c0,0,0,0,0,0h-48.4c0,0,0,0,0,0c0,0,0,0,0,0h-0.5v31.2h21.5c4.7,0,8.6,3.8,8.6,8.6v67.8c0,4.7-3.8,8.6-8.6,8.6h-21.5v31.6h70.6
				c-0.5-1.1-0.7-2.2-0.7-3.5v-98.7c0-4.7,3.8-8.6,8.6-8.6H514c4.7,0,8.6,3.8,8.6,8.6v102.2h71V1371h-23.2c-4.7,0-8.6-3.8-8.6-8.6
				v-67.8c0-4.7,3.8-8.6,8.6-8.6h23.2v-31.2L590.2,1254.7C590.2,1254.7,590.2,1254.7,590.2,1254.7z"/>
			<polygon class="st13" points="518.2,1197 504,1197 506.2,1237.6 530.3,1237.6 			"/>
			<polygon class="st13" points="440.7,1197 438.6,1237.6 456.9,1237.6 456.2,1197 			"/>
			<polygon class="st16" points="336.8,1230.2 356.7,1197 336.8,1197 			"/>
			<polygon class="st13" points="391.5,1197 376.7,1197 352.5,1237.6 379.4,1237.6 			"/>
			<rect x="336.8" y="1303.1" class="st17" width="12.9" height="50.6"/>
			<polygon class="st16" points="409.4,1197 397.3,1237.6 421.4,1237.6 423.5,1197 			"/>
			<path d="M781.4,1402.6h-58.8h-57.7c0.3-0.9,0.5-1.9,0.5-2.9v-350.4c0-4.7-3.8-8.6-8.6-8.6h-56.3c-4.7,0-8.6,3.8-8.6,8.6v10.1
				H336.8v-10.1c0-4.7-3.8-8.6-8.6-8.6h-56c-4.7,0-8.6,3.8-8.6,8.6v350.4c0,1,0.2,2,0.5,2.9h-65.6h-51.4c-4.7,0-8.6,3.8-8.6,8.6
				c0,4.7,3.8,8.6,8.6,8.6h51.4h524h58.8c4.7,0,8.6-3.8,8.6-8.6C790,1406.4,786.2,1402.6,781.4,1402.6z M319.7,1353.8h-12.9v-50.6
				h12.9V1353.8z M453.3,1402.6h-30.2c0.5-1.1,0.7-2.2,0.7-3.5v-90.1h29.4V1402.6z M505.4,1402.6h-34.9v-93.6h34.9V1402.6z
				 M593.6,1353.8H579v-50.6h14.6V1353.8z M593.6,1286h-23.2c-4.7,0-8.6,3.8-8.6,8.6v67.8c0,4.7,3.8,8.6,8.6,8.6h23.2v31.6h-71
				v-102.2c0-4.7-3.8-8.6-8.6-8.6h-98.7c-4.7,0-8.6,3.8-8.6,8.6v98.7c0,1.2,0.3,2.4,0.7,3.5h-70.6V1371h21.5c4.7,0,8.6-3.8,8.6-8.6
				v-67.8c0-4.7-3.8-8.6-8.6-8.6h-21.5v-31.2h0.5c0,0,0,0,0,0c0,0,0,0,0,0h48.4c0,0,0,0,0,0c0,0,0,0,0,0h155.9c0,0,0,0,0,0
				c0,0,0,0,0,0h48.4c0,0,0,0,0,0c0,0,0,0,0,0h3.3V1286z M336.8,1353.8v-50.6h12.9v50.6H336.8z M336.8,1230.2V1197h19.8
				L336.8,1230.2z M376.7,1197h14.8l-12.1,40.6h-26.9L376.7,1197z M397.3,1237.6l12.1-40.6h14.1l-2.1,40.6H397.3z M438.6,1237.6
				l2.1-40.6h15.5l0.6,40.6H438.6z M473.4,1197h13.4l2.1,40.6H474L473.4,1197z M504,1197h14.1l12.1,40.6h-24.1L504,1197z
				 M536.1,1197h14.8l24.2,40.6h-26.9L536.1,1197z M593.6,1235l-22.7-38h22.7V1235z M610.7,1402.6V1371h19.9c4.7,0,8.6-3.8,8.6-8.6
				v-67.8c0-4.7-3.8-8.6-8.6-8.6h-19.9v-31.2h24.4c4.7,0,8.6-3.8,8.6-8.6c0-4.7-3.8-8.6-8.6-8.6h-24.4v-49.2c0-4.7-3.8-8.6-8.6-8.6
				h-77.4c0,0,0,0-0.1,0H403c0,0-0.1,0-0.1,0h-74.6c-4.7,0-8.6,3.8-8.6,8.6v49.2h-21.5c-4.7,0-8.6,3.8-8.6,8.6
				c0,4.7,3.8,8.6,8.6,8.6h21.5v31.2h-21.5c-4.7,0-8.6,3.8-8.6,8.6v67.8c0,4.7,3.8,8.6,8.6,8.6h21.5v31.6h-39.3
				c0.3-0.9,0.5-1.9,0.5-2.9v-341.8h38.8v10.1c0,4.7,3.8,8.6,8.6,8.6h272.3c4.7,0,8.6-3.8,8.6-8.6v-10.1h39.1v341.8
				c0,1,0.2,2,0.5,2.9H610.7z M610.7,1353.8v-50.6H622v50.6H610.7z"/>
			<path d="M714,1428H207.2c-4.7,0-8.6,3.8-8.6,8.6s3.8,8.6,8.6,8.6H714c4.7,0,8.6-3.8,8.6-8.6S718.8,1428,714,1428z"/>
			<path d="M460.1,1459.9H236.9c-4.7,0-8.6,3.8-8.6,8.6s3.8,8.6,8.6,8.6h223.2c4.7,0,8.6-3.8,8.6-8.6S464.9,1459.9,460.1,1459.9z"/>
			<path d="M616.2,1459.9h-116c-4.7,0-8.6,3.8-8.6,8.6s3.8,8.6,8.6,8.6h116c4.7,0,8.6-3.8,8.6-8.6S621,1459.9,616.2,1459.9z"/>
			<path d="M602.7,1086.2H323c-4.7,0-8.6,3.8-8.6,8.6v66.1c0,4.7,3.8,8.6,8.6,8.6h279.7c4.7,0,8.6-3.8,8.6-8.6v-66.1
				C611.3,1090,607.4,1086.2,602.7,1086.2z M594.1,1152.3H331.6v-48.9h262.5V1152.3z"/>
		</g>
		<g>
			<path class="st19" d="M630.6,1371h-19.9v31.6h38c-0.3-0.9-0.5-1.9-0.5-2.9v-341.8h-39.1v10.1c0,4.7-3.8,8.6-8.6,8.6H465.2v9.6
				h137.5c4.7,0,8.6,3.8,8.6,8.6v66.1c0,4.7-3.8,8.6-8.6,8.6H465.2v10.3h59.4c0,0,0,0,0.1,0h77.4c4.7,0,8.6,3.8,8.6,8.6v49.2h24.4
				c4.7,0,8.6,3.8,8.6,8.6c0,4.7-3.8,8.6-8.6,8.6h-24.4v31.2h19.9c4.7,0,8.6,3.8,8.6,8.6v67.8C639.2,1367.1,635.4,1371,630.6,1371z"
				/>
			<rect x="465.2" y="1103.3" class="st20" width="128.9" height="48.9"/>
			<path class="st19" d="M514,1291.8c4.7,0,8.6,3.8,8.6,8.6v102.2h71V1371h-23.2c-4.7,0-8.6-3.8-8.6-8.6v-67.8
				c0-4.7,3.8-8.6,8.6-8.6h23.2v-31.2h-3.3c0,0,0,0,0,0c0,0,0,0,0,0h-48.4c0,0,0,0,0,0c0,0,0,0,0,0h-76.5v37H514z"/>
		</g>
		<path class="st21" d="M293,1223.8h-0.9c-3.1,0-5.5-2.5-5.5-5.5v-148c0-3.1,2.5-5.5,5.5-5.5h0.9c3.1,0,5.5,2.5,5.5,5.5v148
			C298.5,1221.4,296.1,1223.8,293,1223.8z"/>
		<rect x="346.8" y="1127.8" class="st22" width="64.5" height="12.9"/>
	</g>
	<g>
		<g>
			<path class="st23" d="M1293.4,1169.5h-150.7v17.8h152.7C1295.1,1181.3,1294.4,1175.3,1293.4,1169.5z"/>
			<path class="st23" d="M1142.7,1034.6v117.6h146.9C1271.3,1087,1212.9,1038.3,1142.7,1034.6z"/>
			<path class="st24" d="M1125.6,1169.5H974.8c-1,5.9-1.6,11.8-1.9,17.8h152.7V1169.5z"/>
			<path class="st24" d="M1125.6,1034.6c-70.2,3.7-128.6,52.4-146.9,117.6h146.9V1034.6z"/>
			<rect x="1338.2" y="1213.6" class="st24" width="113" height="24"/>
			<polygon class="st24" points="1451.2,1167 1451.2,1137.5 1338.2,1137.5 1338.2,1167 1338.2,1196.4 1451.2,1196.4 			"/>
			<rect x="1094.4" y="1352.2" class="st22" width="29.8" height="50.3"/>
			<path class="st25" d="M902.1,1402.6h53.4v-131.7h-53.4V1402.6z M917,1286.6h23.7v34.3H917V1286.6z M917,1339.8h23.7v34.3H917
				V1339.8z"/>
			<path class="st26" d="M902.1,1330.3v72.3h53.4v-72.3H902.1z M940.7,1374H917v-34.3h23.7V1374z"/>
			<path class="st25" d="M1462.5,1254.7h-149.7v147.8H1463c-0.3-0.9-0.5-1.9-0.5-2.9V1254.7z M1349.2,1364.6h-23.7v-34.3h23.7
				V1364.6z M1349.2,1311.3h-23.7v-34.3h23.7V1311.3z M1394.7,1364.6H1371v-34.3h23.7V1364.6z M1394.7,1311.3H1371v-34.3h23.7
				V1311.3z M1440.2,1364.6h-23.7v-34.3h23.7V1364.6z M1440.2,1311.3h-23.7v-34.3h23.7V1311.3z"/>
			<path class="st26" d="M1462.5,1320.8h-149.7v81.7H1463c-0.3-0.9-0.5-1.9-0.5-2.9V1320.8z M1349.2,1364.6h-23.7v-34.3h23.7V1364.6
				z M1394.7,1364.6H1371v-34.3h23.7V1364.6z M1440.2,1364.6h-23.7v-34.3h23.7V1364.6z"/>
			<rect x="972.7" y="1204.5" class="st24" width="323" height="33.1"/>
			<rect x="1223.5" y="1204.5" class="st23" width="72.1" height="33.1"/>
			<rect x="1141.3" y="1352.2" class="st13" width="25.8" height="50.3"/>
			<path class="st27" d="M972.7,1402.6h37.3v-19.9h-18.6c-4.7,0-8.6-3.8-8.6-8.6v-97c0-4.7,3.8-8.6,8.6-8.6h54.3
				c4.7,0,8.6,3.8,8.6,8.6v97c0,4.7-3.8,8.6-8.6,8.6h-18.6v19.9h50.1v-58.9c0-4.7,3.8-8.6,8.6-8.6h90c4.7,0,8.6,3.8,8.6,8.6v58.9
				h49.2v-19.9H1215c-4.7,0-8.6-3.8-8.6-8.6v-97c0-4.7,3.8-8.6,8.6-8.6h54.3c4.7,0,8.6,3.8,8.6,8.6v97c0,4.7-3.8,8.6-8.6,8.6h-18.6
				v19.9h44.9v-147.8h-323V1402.6z"/>
			<path class="st26" d="M1134.1,1254.7v80.3h41.6c4.7,0,8.6,3.8,8.6,8.6v58.9h49.2v-19.9H1215c-4.7,0-8.6-3.8-8.6-8.6v-97
				c0-4.7,3.8-8.6,8.6-8.6h54.3c4.7,0,8.6,3.8,8.6,8.6v97c0,4.7-3.8,8.6-8.6,8.6h-18.6v19.9h44.9v-147.8H1134.1z"/>
			<rect x="999.9" y="1285.7" class="st13" width="37.2" height="79.8"/>
			<rect x="1223.5" y="1285.7" class="st13" width="37.2" height="79.8"/>
			<path d="M1486.9,1402.6h-7.7c0.3-0.9,0.5-1.9,0.5-2.9v-153.5c0-4.7-3.8-8.6-8.6-8.6h-2.7V1205v-38v-38c0-4.7-3.8-8.6-8.6-8.6
				h-130.2c-4.7,0-8.6,3.8-8.6,8.6v38v38v32.6h-8.2v-41.7c0-98.5-80.1-178.7-178.7-178.7c-85.8,0-157.6,60.7-174.7,141.5
				c-0.1,0.2-0.1,0.5-0.2,0.7c-2.5,11.8-3.8,24-3.8,36.5v57.8h-61.9c-4.7,0-8.6,3.8-8.6,8.6v140.3h-32.1h-0.2
				c-4.7,0-8.6,3.8-8.6,8.6c0,4.7,3.8,8.6,8.6,8.6h0.2h634c4.7,0,8.6-3.8,8.6-8.6C1495.4,1406.4,1491.6,1402.6,1486.9,1402.6z
				 M955.5,1402.6h-53.4v-131.7h53.4V1402.6z M1338.2,1167v-29.4h113v29.4v29.4h-113V1167z M1338.2,1213.6h113v24h-113V1213.6z
				 M1142.7,1034.6c70.2,3.7,128.6,52.4,146.9,117.6h-146.9V1034.6z M1142.7,1169.5h150.7c1,5.9,1.6,11.8,1.9,17.8h-152.7V1169.5z
				 M1125.6,1034.6v117.6H978.6C997,1087,1055.4,1038.3,1125.6,1034.6z M974.8,1169.5h150.7v17.8H972.9
				C973.2,1181.3,973.9,1175.3,974.8,1169.5z M1124.2,1402.6h-29.8v-50.3h29.8V1402.6z M1167.2,1402.6h-25.8v-50.3h25.8V1402.6z
				 M1295.6,1402.6h-44.9v-19.9h18.6c4.7,0,8.6-3.8,8.6-8.6v-97c0-4.7-3.8-8.6-8.6-8.6H1215c-4.7,0-8.6,3.8-8.6,8.6v97
				c0,4.7,3.8,8.6,8.6,8.6h18.6v19.9h-49.2v-58.9c0-4.7-3.8-8.6-8.6-8.6h-90c-4.7,0-8.6,3.8-8.6,8.6v58.9h-50.1v-19.9h18.6
				c4.7,0,8.6-3.8,8.6-8.6v-97c0-4.7-3.8-8.6-8.6-8.6h-54.3c-4.7,0-8.6,3.8-8.6,8.6v97c0,4.7,3.8,8.6,8.6,8.6h18.6v19.9h-37.3
				v-147.8h323V1402.6z M1223.5,1365.5v-79.8h37.2v79.8H1223.5z M999.9,1365.5v-79.8h37.2v79.8H999.9z M1295.6,1237.6h-323v-33.1
				h323V1237.6z M1312.8,1402.6v-147.8h149.7v144.9c0,1,0.2,2,0.5,2.9H1312.8z"/>
			<path d="M1419.5,1428H912.7c-4.7,0-8.6,3.8-8.6,8.6s3.8,8.6,8.6,8.6h506.8c4.7,0,8.6-3.8,8.6-8.6S1424.2,1428,1419.5,1428z"/>
			<path d="M1165.6,1459.9H942.4c-4.7,0-8.6,3.8-8.6,8.6s3.8,8.6,8.6,8.6h223.2c4.7,0,8.6-3.8,8.6-8.6S1170.3,1459.9,1165.6,1459.9z
				"/>
			<path d="M1321.7,1459.9h-116c-4.7,0-8.6,3.8-8.6,8.6s3.8,8.6,8.6,8.6h116c4.7,0,8.6-3.8,8.6-8.6S1326.4,1459.9,1321.7,1459.9z"/>
			<rect x="1325.5" y="1277.1" width="23.7" height="34.3"/>
			<rect x="1371" y="1277.1" width="23.7" height="34.3"/>
			<rect x="1416.5" y="1277.1" width="23.7" height="34.3"/>
			<rect x="1325.5" y="1330.3" width="23.7" height="34.3"/>
			<rect x="917" y="1286.6" width="23.7" height="34.3"/>
			<rect x="917" y="1339.8" width="23.7" height="34.3"/>
			<rect x="1371" y="1330.3" width="23.7" height="34.3"/>
			<rect x="1416.5" y="1330.3" width="23.7" height="34.3"/>
		</g>
		<g>
			<rect x="1413" y="1213.6" class="st23" width="38.2" height="24"/>
			<rect x="1338.2" y="1213.6" class="st28" width="16.9" height="24"/>
			<polygon class="st28" points="1338.2,1137.5 1338.2,1167 1338.2,1196.4 1355.1,1196.4 1355.1,1137.5 			"/>
			<polygon class="st23" points="1451.2,1196.4 1451.2,1167 1451.2,1137.5 1413,1137.5 1413,1196.4 			"/>
		</g>
		<g>
			<path class="st28" d="M974.8,1169.5c-1,5.9-1.6,11.8-1.9,17.8h45.6v-17.8H974.8z"/>
			<path class="st28" d="M978.6,1152.3h39.9v-69C999.9,1102.4,986,1126,978.6,1152.3z"/>
			<rect x="972.7" y="1204.5" class="st28" width="45.8" height="33.1"/>
		</g>
		<g>
			<path class="st16" d="M1235.4,1327c-7.6,0-7.6-11,0-11C1243.1,1316,1243.1,1327,1235.4,1327z M1252.6,1316.4l-16.2,24.7h-5
				l16.2-24.7H1252.6z M1235.4,1323.8c3,0,3-4.6,0-4.6S1232.4,1323.8,1235.4,1323.8z M1248.8,1341.3c-7.6,0-7.6-11,0-11
				C1256.4,1330.3,1256.4,1341.3,1248.8,1341.3z M1248.8,1338.1c3,0,3-4.6,0-4.6C1245.8,1333.5,1245.8,1338.1,1248.8,1338.1z"/>
		</g>
		<g>
			<path class="st16" d="M1011.8,1327c-7.6,0-7.6-11,0-11C1019.5,1316,1019.5,1327,1011.8,1327z M1029,1316.4l-16.2,24.7h-5
				l16.2-24.7H1029z M1011.8,1323.8c3,0,3-4.6,0-4.6C1008.8,1319.2,1008.8,1323.8,1011.8,1323.8z M1025.2,1341.3c-7.6,0-7.6-11,0-11
				C1032.8,1330.3,1032.8,1341.3,1025.2,1341.3z M1025.2,1338.1c3,0,3-4.6,0-4.6C1022.2,1333.5,1022.2,1338.1,1025.2,1338.1z"/>
		</g>
	</g>
	<g>
		<g>
			<path class="st17" d="M1840.3,1400.3c0,0.8-0.1,1.6-0.3,2.4h48.6v-82h-48.3V1400.3z"/>
			<path class="st17" d="M1906.6,1054.4h-148.3v152.8h148.3V1054.4z M1800.9,1198.7h-28.4v-28.4h28.4V1198.7z M1800.9,1150.4h-28.4
				V1122h28.4V1150.4z M1800.9,1102.1h-28.4v-28.4h28.4V1102.1z M1890.4,1198.7H1862v-28.4h28.4V1198.7z M1890.4,1150.4H1862V1122
				h28.4V1150.4z M1890.4,1102.1H1862v-28.4h28.4V1102.1z"/>
			<path class="st17" d="M1823.1,1320.7h-48.3v82h48.6c-0.2-0.8-0.3-1.5-0.3-2.4V1320.7z"/>
			<path class="st25" d="M1668.2,1402.7h23.6v-146.4h-82.2C1617.5,1279,1647.8,1353.6,1668.2,1402.7z"/>
			<rect x="1546.3" y="1183.9" class="st13" width="145.5" height="55.3"/>
			<rect x="1546.3" y="1183.9" class="st1" width="38.4" height="55.3"/>
			<rect x="1653.5" y="1183.9" class="st29" width="38.4" height="55.3"/>
			<rect x="1708.9" y="1054.4" class="st24" width="32.2" height="152.8"/>
			<rect x="1971.1" y="1183.9" class="st13" width="145.1" height="55.3"/>
			<path class="st25" d="M1971.1,1402.7h23.2c20.4-49.1,50.7-123.7,58.6-146.4h-81.8V1402.7z"/>
			<path class="st26" d="M1609.6,1256.3c2.7,7.7,7.9,21.3,14.5,37.9h67.7v-37.9H1609.6z"/>
			<path class="st26" d="M2052.9,1256.3h-81.8v37.9h67.3C2045,1277.6,2050.2,1264,2052.9,1256.3z"/>
			<path class="st24" d="M1708.9,1402.7h48.7v-90.6c0-4.7,3.8-8.6,8.6-8.6h130.9c4.7,0,8.6,3.8,8.6,8.6v90.6h48.2v-110h-245V1402.7z
				"/>
			<rect x="1923.7" y="1054.4" class="st24" width="30.2" height="152.8"/>
			<rect x="1708.7" y="1224.4" class="st13" width="245" height="51.2"/>
			<rect x="1720.7" y="1224.4" class="st1" width="20.1" height="51.2"/>
			<rect x="1754.3" y="1224.4" class="st1" width="20.1" height="51.2"/>
			<rect x="1792.8" y="1224.4" class="st1" width="20.1" height="51.2"/>
			<rect x="1836" y="1224.4" class="st1" width="20.1" height="51.2"/>
			<rect x="1878.1" y="1224.4" class="st1" width="20.1" height="51.2"/>
			<rect x="1918.5" y="1224.4" class="st1" width="20.1" height="51.2"/>
			<path d="M2042.2,1426.8h-416.3c-4.7,0-8.6,3.8-8.6,8.6s3.8,8.6,8.6,8.6h416.3c4.7,0,8.6-3.8,8.6-8.6S2047,1426.8,2042.2,1426.8z"
				/>
			<path d="M1833.6,1457.1h-183.4c-4.7,0-8.6,3.8-8.6,8.6s3.8,8.6,8.6,8.6h183.4c4.7,0,8.6-3.8,8.6-8.6S1838.4,1457.1,1833.6,1457.1
				z"/>
			<path d="M1961.9,1457.1h-95.3c-4.7,0-8.6,3.8-8.6,8.6s3.8,8.6,8.6,8.6h95.3c4.7,0,8.6-3.8,8.6-8.6S1966.6,1457.1,1961.9,1457.1z"
				/>
			<rect x="1772.6" y="1073.7" width="28.4" height="28.4"/>
			<rect x="1862" y="1073.7" width="28.4" height="28.4"/>
			<rect x="1772.6" y="1122" width="28.4" height="28.4"/>
			<rect x="1862" y="1122" width="28.4" height="28.4"/>
			<rect x="1772.6" y="1170.4" width="28.4" height="28.4"/>
			<rect x="1862" y="1170.4" width="28.4" height="28.4"/>
			<path d="M2124.8,1166.7h-153.7v-120.9c0-4.7-3.8-8.6-8.6-8.6h-262.2c-4.7,0-8.6,3.8-8.6,8.6v120.9h-154.1c-4.7,0-8.6,3.8-8.6,8.6
				v72.5c0,4.7,3.8,8.6,8.6,8.6h54c2.4,8.5,9.8,28,30.3,78.7c10.9,27,22,53.9,27.7,67.7h-73c-4.7,0-8.6,3.8-8.6,8.6s3.8,8.6,8.6,8.6
				h521c4.7,0,8.6-3.8,8.6-8.6s-3.8-8.6-8.6-8.6h-84.7c5.7-13.8,16.8-40.7,27.7-67.7c20.5-50.7,27.9-70.2,30.3-78.7h54
				c4.7,0,8.6-3.8,8.6-8.6v-72.5C2133.4,1170.5,2129.5,1166.7,2124.8,1166.7z M1691.8,1402.7h-23.6
				c-20.4-49.1-50.7-123.7-58.6-146.4h82.2V1402.7z M1691.8,1239.2h-145.5v-55.3h145.5V1239.2z M1758.3,1054.4h148.3v152.8h-148.3
				V1054.4z M1708.9,1054.4h32.2v152.8h-32.2V1054.4z M1774.8,1402.7v-82h48.3v79.7c0,0.8,0.1,1.6,0.3,2.4H1774.8z M1888.6,1402.7
				h-48.6c0.2-0.8,0.3-1.5,0.3-2.4v-79.7h48.3V1402.7z M1953.9,1402.7h-48.2v-90.6c0-4.7-3.8-8.6-8.6-8.6h-130.9
				c-4.7,0-8.6,3.8-8.6,8.6v90.6h-48.7v-110h245V1402.7z M1953.9,1275.5h-245v-51.2h245V1275.5z M1953.9,1207.2h-30.2v-152.8h30.2
				V1207.2z M1994.3,1402.7h-23.2v-146.4h81.8C2045,1279,2014.6,1353.6,1994.3,1402.7z M2116.2,1239.2h-145.1v-55.3h145.1V1239.2z"
				/>
			<rect x="1971.1" y="1183.9" class="st1" width="38.4" height="55.3"/>
			<rect x="2077.8" y="1183.9" class="st29" width="38.4" height="55.3"/>
		</g>
		<g>
			<path class="st30" d="M1840.3,1400.3c0,0.8-0.1,1.6-0.3,2.4h48.6v-82h-48.3V1400.3z"/>
			<path class="st30" d="M1906.6,1054.4h-72.5v152.8h72.5V1054.4z M1890.4,1198.7H1862v-28.4h28.4V1198.7z M1890.4,1150.4H1862V1122
				h28.4V1150.4z M1890.4,1102.1H1862v-28.4h28.4V1102.1z"/>
			<path class="st31" d="M1834.1,1303.5h63.1c4.7,0,8.6,3.8,8.6,8.6v90.6h48.2v-110h-119.9V1303.5z"/>
		</g>
	</g>
</g>
</svg>
